<?xml version="1.0" encoding="UTF-8" standalone="no"?>
<svg
   xmlns:dc="http://purl.org/dc/elements/1.1/"
   xmlns:cc="http://creativecommons.org/ns#"
   xmlns:rdf="http://www.w3.org/1999/02/22-rdf-syntax-ns#"
   xmlns:svg="http://www.w3.org/2000/svg"
   xmlns="http://www.w3.org/2000/svg"
   xmlns:sodipodi="http://sodipodi.sourceforge.net/DTD/sodipodi-0.dtd"
   xmlns:inkscape="http://www.inkscape.org/namespaces/inkscape"
   width="173.45015"
   height="50.200001"
   viewBox="-15000 0 0 51"
   version="1.1"
   xml:space="preserve"
   style="clip-rule:evenodd;fill-rule:evenodd;stroke-linejoin:round;stroke-miterlimit:1.41420996"
   id="svg4187"
   inkscape:version="0.91 r13725"
   sodipodi:docname="logo-dark-fullname.svg"><metadata
     id="metadata4198"><rdf:RDF><cc:Work
         rdf:about=""><dc:format>image/svg+xml</dc:format><dc:type
           rdf:resource="http://purl.org/dc/dcmitype/StillImage" /><dc:title></dc:title></cc:Work></rdf:RDF></metadata><defs
     id="defs4196" /><sodipodi:namedview
     pagecolor="#ffffff"
     bordercolor="#666666"
     borderopacity="1"
     objecttolerance="10"
     gridtolerance="10"
     guidetolerance="10"
     inkscape:pageopacity="0"
     inkscape:pageshadow="2"
     inkscape:window-width="1920"
     inkscape:window-height="1027"
     id="namedview4194"
     showgrid="false"
     fit-margin-top="0.1"
     fit-margin-right="0.1"
     fit-margin-left="0.1"
     fit-margin-bottom="0.1"
     inkscape:zoom="4.2058824"
     inkscape:cx="92.684882"
     inkscape:cy="31.664974"
     inkscape:window-x="0"
     inkscape:window-y="0"
     inkscape:window-maximized="1"
     inkscape:current-layer="svg4187" /><g
     id="logo"
     transform="translate(0.1,-0.508)"><g
       id="g4882"><path
         inkscape:connector-curvature="0"
         id="path4190"
         style="fill:#2e006a"
         d="m 46.103,0.61 0.103,0.004 0.102,0.006 0.101,0.009 0.1,0.012 0.1,0.014 0.099,0.016 0.098,0.019 0.097,0.021 0.096,0.023 0.096,0.026 0.094,0.028 0.093,0.031 0.093,0.032 0.091,0.035 0.09,0.037 0.09,0.039 0.088,0.041 0.086,0.043 0.086,0.046 0.084,0.047 0.083,0.049 0.082,0.051 0.081,0.053 0.079,0.055 0.078,0.057 0.076,0.058 0.075,0.06 0.073,0.062 0.072,0.064 0.07,0.065 0.069,0.068 0.067,0.068 0.065,0.071 0.064,0.071 0.062,0.074 0.06,0.075 0.059,0.076 0.057,0.078 0.054,0.079 0.053,0.08 0.052,0.082 0.049,0.083 0.047,0.084 0.045,0.086 0.043,0.087 0.041,0.088 0.039,0.089 0.037,0.09 0.035,0.092 0.033,0.092 0.03,0.094 0.028,0.094 0.026,0.095 0.023,0.097 0.022,0.097 0.018,0.098 0.017,0.099 0.014,0.099 0.011,0.101 0.009,0.101 0.007,0.102 0.004,0.102 10e-4,0.103 0,42 -10e-4,0.104 -0.004,0.102 -0.007,0.102 -0.009,0.101 -0.011,0.101 -0.014,0.099 -0.017,0.099 -0.018,0.098 -0.022,0.097 -0.023,0.097 -0.026,0.095 -0.028,0.094 -0.03,0.094 -0.033,0.092 -0.035,0.092 -0.037,0.09 -0.039,0.089 -0.041,0.088 -0.043,0.087 -0.045,0.085 -0.047,0.085 -0.049,0.083 -0.052,0.082 -0.053,0.08 -0.054,0.079 -0.057,0.078 -0.059,0.076 -0.06,0.075 -0.062,0.074 -0.064,0.071 -0.065,0.071 -0.067,0.068 -0.069,0.067 -0.07,0.066 -0.072,0.064 -0.073,0.062 -0.075,0.06 -0.076,0.058 -0.078,0.057 -0.079,0.055 -0.081,0.053 -0.082,0.051 -0.083,0.049 -0.084,0.047 -0.086,0.046 -0.086,0.043 -0.088,0.041 -0.09,0.039 -0.09,0.037 -0.091,0.035 -0.093,0.032 -0.093,0.03 -0.094,0.029 -0.096,0.025 -0.096,0.024 -0.097,0.021 -0.098,0.019 -0.099,0.016 -0.1,0.014 -0.1,0.012 -0.101,0.009 -0.102,0.006 -0.103,0.004 L 46,50.608 4,50.608 3.897,50.607 3.794,50.603 3.692,50.597 3.591,50.588 3.491,50.576 3.391,50.562 3.292,50.546 3.194,50.527 3.097,50.506 3.001,50.482 2.905,50.457 2.811,50.428 2.718,50.398 2.625,50.366 2.534,50.331 2.444,50.294 2.354,50.255 2.266,50.214 2.18,50.171 2.094,50.125 2.01,50.078 1.927,50.029 1.845,49.978 1.764,49.925 1.685,49.87 1.607,49.813 1.531,49.755 1.456,49.695 1.383,49.633 1.311,49.569 1.241,49.503 1.172,49.436 1.105,49.368 1.04,49.297 0.976,49.226 0.914,49.152 0.854,49.077 0.795,49.001 0.738,48.923 0.684,48.844 0.631,48.764 0.579,48.682 0.53,48.599 0.483,48.514 0.438,48.429 0.395,48.342 0.354,48.254 0.315,48.165 0.278,48.075 0.243,47.983 0.21,47.891 0.18,47.797 0.152,47.703 0.126,47.608 0.103,47.511 0.081,47.414 0.063,47.316 0.046,47.217 0.032,47.118 0.021,47.017 0.012,46.916 0.005,46.814 0.001,46.712 0,46.608 0,4.608 0.001,4.505 0.005,4.403 0.012,4.301 0.021,4.2 0.032,4.099 0.046,4 0.063,3.901 0.081,3.803 0.103,3.706 0.126,3.609 0.152,3.514 0.18,3.42 0.21,3.326 0.243,3.234 0.278,3.142 0.315,3.052 0.354,2.963 0.395,2.875 0.438,2.788 0.483,2.702 0.53,2.618 0.579,2.535 0.631,2.453 0.684,2.373 0.738,2.294 0.795,2.216 0.854,2.14 0.914,2.065 0.976,1.991 1.04,1.92 1.105,1.849 1.172,1.781 1.241,1.713 1.311,1.648 1.383,1.584 1.456,1.522 1.531,1.462 1.607,1.404 1.685,1.347 1.764,1.292 1.845,1.239 1.927,1.188 2.01,1.139 2.094,1.092 2.18,1.046 2.266,1.003 2.354,0.962 2.444,0.923 2.534,0.886 2.625,0.851 2.718,0.819 2.811,0.788 2.905,0.76 3.001,0.734 3.097,0.711 3.194,0.69 3.292,0.671 3.391,0.655 3.491,0.641 3.591,0.629 3.692,0.62 3.794,0.614 3.897,0.61 4,0.608 l 42,0 0.103,0.002 z M 4.013,2.608 3.948,2.609 3.896,2.611 3.844,2.614 3.794,2.619 3.744,2.625 3.693,2.632 3.644,2.64 3.596,2.649 3.548,2.66 3.5,2.671 3.452,2.684 3.405,2.698 3.36,2.713 3.314,2.729 3.268,2.747 3.222,2.765 3.179,2.784 3.136,2.805 3.092,2.826 3.049,2.849 3.007,2.872 2.965,2.897 2.924,2.923 2.884,2.949 2.846,2.976 2.805,3.005 2.766,3.035 2.73,3.065 2.692,3.097 2.657,3.127 2.622,3.16 2.586,3.196 2.553,3.23 2.52,3.264 2.487,3.302 2.457,3.337 2.426,3.375 2.396,3.415 2.368,3.453 2.341,3.492 2.314,3.533 2.288,3.574 2.265,3.615 2.24,3.658 2.218,3.701 2.196,3.744 2.176,3.786 2.157,3.832 2.137,3.878 2.121,3.921 2.105,3.967 2.09,4.014 2.075,4.062 2.063,4.108 2.051,4.156 2.041,4.204 2.032,4.251 2.023,4.302 2.016,4.353 2.01,4.403 2.006,4.451 2.003,4.504 2.001,4.557 2,4.621 l 0,41.975 10e-4,0.064 0.002,0.053 0.003,0.053 0.004,0.048 0.006,0.049 0.007,0.052 0.009,0.051 0.009,0.047 0.01,0.048 0.012,0.048 0.012,0.046 0.015,0.048 0.015,0.047 0.016,0.046 0.016,0.042 0.02,0.047 0.019,0.046 0.02,0.042 0.022,0.043 0.022,0.043 0.025,0.043 0.023,0.041 0.026,0.041 0.027,0.041 0.027,0.039 0.028,0.038 0.03,0.04 0.031,0.038 0.03,0.035 0.033,0.038 0.033,0.034 0.033,0.034 0.036,0.036 0.035,0.033 0.035,0.03 0.038,0.032 0.036,0.03 0.039,0.03 0.041,0.029 0.038,0.026 0.04,0.027 0.041,0.026 0.042,0.024 0.042,0.024 0.043,0.022 0.044,0.022 0.043,0.02 0.043,0.019 0.046,0.019 0.047,0.018 0.045,0.016 0.045,0.014 0.047,0.014 0.048,0.013 0.047,0.012 0.049,0.011 0.048,0.009 0.049,0.008 0.05,0.007 0.051,0.006 0.05,0.004 0.052,0.004 0.052,0.002 0.065,0 41.974,0 0.065,0 0.052,-0.002 0.052,-0.004 0.05,-0.004 0.051,-0.006 0.05,-0.007 0.049,-0.008 0.048,-0.009 0.049,-0.011 0.047,-0.012 0.048,-0.013 0.047,-0.014 0.045,-0.014 0.045,-0.016 0.047,-0.018 0.046,-0.019 0.043,-0.019 0.043,-0.02 0.044,-0.022 0.043,-0.022 0.042,-0.024 0.042,-0.024 0.041,-0.026 0.04,-0.027 0.038,-0.026 0.041,-0.029 0.039,-0.03 0.036,-0.03 0.038,-0.032 0.035,-0.03 0.035,-0.033 0.036,-0.036 0.033,-0.034 0.033,-0.034 0.033,-0.038 0.03,-0.035 0.031,-0.038 0.03,-0.04 0.028,-0.038 0.027,-0.039 0.027,-0.041 0.026,-0.041 0.023,-0.041 0.025,-0.043 0.022,-0.043 0.022,-0.043 0.02,-0.042 0.019,-0.046 0.02,-0.047 0.016,-0.042 0.016,-0.046 0.015,-0.047 0.015,-0.048 0.012,-0.046 0.012,-0.048 0.01,-0.048 0.009,-0.047 0.009,-0.051 0.007,-0.052 0.006,-0.049 0.004,-0.048 0.003,-0.053 L 47.999,46.66 48,46.596 48,4.621 47.999,4.557 47.997,4.504 47.994,4.451 47.99,4.403 47.984,4.353 47.977,4.302 47.968,4.251 47.959,4.204 47.949,4.156 47.937,4.108 47.925,4.062 47.91,4.014 47.895,3.967 47.879,3.921 47.863,3.878 47.843,3.832 47.824,3.786 47.804,3.744 47.782,3.701 47.76,3.658 47.735,3.615 47.712,3.574 47.686,3.533 47.659,3.492 47.632,3.453 47.604,3.415 47.574,3.375 47.543,3.337 47.513,3.302 47.48,3.264 47.447,3.23 47.414,3.196 47.378,3.16 47.343,3.127 47.308,3.097 47.27,3.065 47.234,3.035 47.195,3.005 47.154,2.976 47.116,2.949 47.076,2.923 47.035,2.897 46.993,2.872 46.951,2.849 46.908,2.826 46.864,2.805 46.821,2.784 46.778,2.765 46.732,2.747 46.686,2.729 46.64,2.713 46.595,2.698 46.548,2.684 46.5,2.671 46.452,2.66 46.404,2.649 46.356,2.64 46.307,2.632 46.256,2.625 46.206,2.619 46.156,2.614 46.104,2.611 46.052,2.609 45.987,2.608 l -41.974,0 z" /><path
         inkscape:connector-curvature="0"
         id="path4192"
         style="fill:#2e006a;fill-rule:nonzero"
         d="M 26.413,9.901 C 25.852,9.857 25.291,9.814 24.688,9.814 c -7.202,0 -15.132,5.477 -15.132,11.213 0,3.102 1.637,4.179 4.609,4.179 -0.043,-0.388 -0.604,-0.732 -0.604,-2.929 0,-4.571 2.243,-7.848 6.038,-9.444 l -6.253,29.32 6.21,0 3.45,-16.215 6.339,0 -3.45,16.215 6.21,0 6.857,-32.252 -6.21,0 -2.76,12.851 -6.339,0 2.76,-12.851 z" /></g><g
       style="clip-rule:evenodd;fill:#2e006a;fill-opacity:1;fill-rule:evenodd;stroke-linejoin:round;stroke-miterlimit:1.41420996"
       id="g4272"
       transform="matrix(0.61398113,0,0,0.61398113,62.13676,-123.45581)"><g
         id="g4842"><path
           d="m 38.962,216.411 c -0.906,-0.07 -1.812,-0.14 -2.788,-0.14 -11.636,0 -24.449,8.85 -24.449,18.118 0,5.013 2.644,6.752 7.447,6.752 -0.07,-0.626 -0.975,-1.183 -0.975,-4.732 0,-7.386 3.623,-12.682 9.755,-15.26 l -10.103,47.375 10.033,0 5.575,-26.2 10.243,0 -5.575,26.2 10.034,0 11.08,-52.113 -10.034,0 -4.46,20.765 -10.243,0 4.46,-20.765 z"
           style="fill:#2e006a;fill-opacity:1;fill-rule:nonzero"
           id="path4274"
           inkscape:connector-curvature="0" /><path
           d="m 75.342,233.065 c -14.356,0 -19.091,16.719 -19.091,24.735 0,7.941 4.665,11.002 11.141,11.002 8.577,0 15.54,-8.075 16.654,-20.97 5.086,-0.837 9.685,-2.928 12.333,-5.786 l -0.627,-1.882 c -2.997,2.091 -7.526,4.183 -10.731,4.183 -0.209,0 -0.488,0 -0.767,-0.14 0,-7.318 -2.922,-11.142 -8.912,-11.142 z m -5.161,29.475 c -2.649,0 -3.556,-1.046 -3.556,-5.646 0,-6.832 4.323,-19.588 9.274,-19.588 1.813,0 2.511,1.116 2.65,4.043 -1.255,0.558 -2.16,1.813 -2.16,3.764 0,1.394 0.418,2.579 1.879,2.928 -1.113,8.225 -4.669,14.499 -8.086,14.499 l -0.001,0 z"
           style="fill:#2e006a;fill-opacity:1;fill-rule:nonzero"
           id="path4276"
           inkscape:connector-curvature="0" /><path
           d="m 113.802,233.692 -13.443,10.589 5.227,-24.525 -10.313,1.393 -10.104,47.383 10.034,0 3.623,-17.218 c 1.952,-1.604 3.554,-2.58 5.157,-2.58 1.812,0 2.508,1.325 2.508,3.346 0,0.767 -0.069,1.673 -0.278,2.58 l -0.558,2.718 c -0.279,1.327 -0.418,2.512 -0.418,3.628 0,5.082 3.063,7.936 8.772,7.936 3.205,0 8.849,-1.183 12.821,-12.886 l -2.927,0 c -1.533,3.625 -2.787,6.135 -5.853,6.135 -2.16,0 -2.718,-1.185 -2.718,-2.579 0,-0.767 0.209,-1.534 0.349,-2.232 l 0.766,-3.486 c 0.209,-0.906 0.279,-1.813 0.279,-2.65 0,-4.458 -2.507,-8.145 -7.659,-8.145 -0.765,0 -1.531,0.139 -2.297,0.278 l 13.928,-9.685 -6.896,0 z"
           style="fill:#2e006a;fill-opacity:1;fill-rule:nonzero"
           id="path4278"
           inkscape:connector-curvature="0" /><path
           d="m 145.853,233.692 -4.739,22.367 c -1.045,3.485 -2.857,6.132 -5.574,6.132 -1.533,0 -2.091,-1.254 -2.091,-2.857 0,-0.627 0.07,-1.254 0.209,-1.951 l 5.017,-23.691 -10.03,0 -4.734,22.367 c -0.348,1.673 -0.557,3.206 -0.557,4.53 0,5.847 3.272,8.353 7.45,8.353 2.924,0 6.826,-0.905 10.31,-6.611 0.418,4.314 2.927,6.611 6.899,6.611 3.762,0 10.034,-1.531 14.006,-12.883 l -2.927,0 c -1.045,3.485 -2.927,6.132 -5.644,6.132 -1.951,0 -2.857,-0.627 -2.857,-2.578 0,-0.627 0.07,-1.324 0.279,-2.23 l 5.017,-23.691 -10.034,0 z"
           style="fill:#2e006a;fill-opacity:1;fill-rule:nonzero"
           id="path4280"
           inkscape:connector-curvature="0" /><path
           d="m 169.133,232.925 c -2.162,6.829 -4.672,13.727 -8.578,20.626 -1.877,0.906 -3.684,3.275 -3.684,6.48 0,4.25 3.059,8.911 10.17,8.911 5.716,0 13.931,-2.992 13.931,-12.046 0,-4.599 -0.697,-7.317 -1.533,-25.364 l -10.306,1.393 z m -3.63,23.134 c 0,-1.184 -0.696,-2.02 -1.601,-2.438 2.299,-4.46 4.254,-8.641 5.651,-13.17 0.696,10.731 1.324,12.891 1.324,16.514 0,4.873 -2.999,6.472 -6.068,6.472 -3.068,0 -4.254,-1.599 -4.254,-4.869 0.349,0.697 1.186,0.906 1.883,0.906 1.812,0 3.065,-1.742 3.065,-3.415 z"
           style="fill:#2e006a;fill-opacity:1;fill-rule:nonzero"
           id="path4282"
           inkscape:connector-curvature="0" /></g></g></g></svg>