<?xml version="1.0" encoding="UTF-8" standalone="no"?>
<svg
   xmlns:dc="http://purl.org/dc/elements/1.1/"
   xmlns:cc="http://creativecommons.org/ns#"
   xmlns:rdf="http://www.w3.org/1999/02/22-rdf-syntax-ns#"
   xmlns:svg="http://www.w3.org/2000/svg"
   xmlns="http://www.w3.org/2000/svg"
   version="1.1"
   id="svg5294"
   viewBox="0 0 173.95881 50.708662"
   height="14.311111mm"
   width="49.095043mm">
  <defs
     id="defs5296" />
  <metadata
     id="metadata5299">
    <rdf:RDF>
      <cc:Work
         rdf:about="">
        <dc:format>image/svg+xml</dc:format>
        <dc:type
           rdf:resource="http://purl.org/dc/dcmitype/StillImage" />
        <dc:title></dc:title>
      </cc:Work>
    </rdf:RDF>
  </metadata>
  <g
     transform="translate(-124.61838,-475.52073)"
     id="layer1">
    <g
       id="g5862">
      <path
         id="path4190"
         style="clip-rule:evenodd;fill:#2e006a;fill-rule:evenodd;stroke-linejoin:round;stroke-miterlimit:1.41420996;image-rendering:optimizeQuality"
         d="m 171.07571,475.87706 0.103,0.004 0.102,0.006 0.101,0.009 0.1,0.012 0.1,0.014 0.099,0.016 0.098,0.019 0.097,0.021 0.096,0.023 0.096,0.026 0.094,0.028 0.093,0.031 0.093,0.032 0.091,0.035 0.09,0.037 0.09,0.039 0.088,0.041 0.086,0.043 0.086,0.046 0.084,0.047 0.083,0.049 0.082,0.051 0.081,0.053 0.079,0.055 0.078,0.057 0.076,0.058 0.075,0.06 0.073,0.062 0.072,0.064 0.07,0.065 0.069,0.068 0.067,0.068 0.065,0.071 0.064,0.071 0.062,0.074 0.06,0.075 0.059,0.076 0.057,0.078 0.054,0.079 0.053,0.08 0.052,0.082 0.049,0.083 0.047,0.084 0.045,0.086 0.043,0.087 0.041,0.088 0.039,0.089 0.037,0.09 0.035,0.092 0.033,0.092 0.03,0.094 0.028,0.094 0.026,0.095 0.023,0.097 0.022,0.097 0.018,0.098 0.017,0.099 0.014,0.099 0.011,0.101 0.009,0.101 0.007,0.102 0.004,0.102 0.001,0.103 0,42 -0.001,0.104 -0.004,0.102 -0.007,0.102 -0.009,0.101 -0.011,0.101 -0.014,0.099 -0.017,0.099 -0.018,0.098 -0.022,0.097 -0.023,0.097 -0.026,0.095 -0.028,0.094 -0.03,0.094 -0.033,0.092 -0.035,0.092 -0.037,0.09 -0.039,0.089 -0.041,0.088 -0.043,0.087 -0.045,0.085 -0.047,0.085 -0.049,0.083 -0.052,0.082 -0.053,0.08 -0.054,0.079 -0.057,0.078 -0.059,0.076 -0.06,0.075 -0.062,0.074 -0.064,0.071 -0.065,0.071 -0.067,0.068 -0.069,0.067 -0.07,0.066 -0.072,0.064 -0.073,0.062 -0.075,0.06 -0.076,0.058 -0.078,0.057 -0.079,0.055 -0.081,0.053 -0.082,0.051 -0.083,0.049 -0.084,0.047 -0.086,0.046 -0.086,0.043 -0.088,0.041 -0.09,0.039 -0.09,0.037 -0.091,0.035 -0.093,0.032 -0.093,0.03 -0.094,0.029 -0.096,0.025 -0.096,0.024 -0.097,0.021 -0.098,0.019 -0.099,0.016 -0.1,0.014 -0.1,0.012 -0.101,0.009 -0.102,0.006 -0.103,0.004 -0.103,10e-4 -42,0 -0.103,-10e-4 -0.103,-0.004 -0.102,-0.006 -0.101,-0.009 -0.1,-0.012 -0.1,-0.014 -0.099,-0.016 -0.098,-0.019 -0.097,-0.021 -0.096,-0.024 -0.096,-0.025 -0.094,-0.029 -0.093,-0.03 -0.093,-0.032 -0.091,-0.035 -0.09,-0.037 -0.09,-0.039 -0.088,-0.041 -0.086,-0.043 -0.086,-0.046 -0.084,-0.047 -0.083,-0.049 -0.082,-0.051 -0.081,-0.053 -0.079,-0.055 -0.078,-0.057 -0.076,-0.058 -0.075,-0.06 -0.073,-0.062 -0.072,-0.064 -0.07,-0.066 -0.069,-0.067 -0.067,-0.068 -0.065,-0.071 -0.064,-0.071 -0.062,-0.074 -0.06,-0.075 -0.059,-0.076 -0.057,-0.078 -0.054,-0.079 -0.053,-0.08 -0.052,-0.082 -0.049,-0.083 -0.047,-0.085 -0.045,-0.085 -0.043,-0.087 -0.041,-0.088 -0.039,-0.089 -0.037,-0.09 -0.035,-0.092 -0.033,-0.092 -0.03,-0.094 -0.028,-0.094 -0.026,-0.095 -0.023,-0.097 -0.022,-0.097 -0.018,-0.098 -0.017,-0.099 -0.014,-0.099 -0.011,-0.101 -0.009,-0.101 -0.007,-0.102 -0.004,-0.102 -10e-4,-0.104 0,-42 10e-4,-0.103 0.004,-0.102 0.007,-0.102 0.009,-0.101 0.011,-0.101 0.014,-0.099 0.017,-0.099 0.018,-0.098 0.022,-0.097 0.023,-0.097 0.026,-0.095 0.028,-0.094 0.03,-0.094 0.033,-0.092 0.035,-0.092 0.037,-0.09 0.039,-0.089 0.041,-0.088 0.043,-0.087 0.045,-0.086 0.047,-0.084 0.049,-0.083 0.052,-0.082 0.053,-0.08 0.054,-0.079 0.057,-0.078 0.059,-0.076 0.06,-0.075 0.062,-0.074 0.064,-0.071 0.065,-0.071 0.067,-0.068 0.069,-0.068 0.07,-0.065 0.072,-0.064 0.073,-0.062 0.075,-0.06 0.076,-0.058 0.078,-0.057 0.079,-0.055 0.081,-0.053 0.082,-0.051 0.083,-0.049 0.084,-0.047 0.086,-0.046 0.086,-0.043 0.088,-0.041 0.09,-0.039 0.09,-0.037 0.091,-0.035 0.093,-0.032 0.093,-0.031 0.094,-0.028 0.096,-0.026 0.096,-0.023 0.097,-0.021 0.098,-0.019 0.099,-0.016 0.1,-0.014 0.1,-0.012 0.101,-0.009 0.102,-0.006 0.103,-0.004 0.103,-0.002 42,0 0.103,0.002 z m -42.09,1.998 -0.065,10e-4 -0.052,0.002 -0.052,0.003 -0.05,0.005 -0.05,0.006 -0.051,0.007 -0.049,0.008 -0.048,0.009 -0.048,0.011 -0.048,0.011 -0.048,0.013 -0.047,0.014 -0.045,0.015 -0.046,0.016 -0.046,0.018 -0.046,0.018 -0.043,0.019 -0.043,0.021 -0.044,0.021 -0.043,0.023 -0.042,0.023 -0.042,0.025 -0.041,0.026 -0.04,0.026 -0.038,0.027 -0.041,0.029 -0.039,0.03 -0.036,0.03 -0.038,0.032 -0.035,0.03 -0.035,0.033 -0.036,0.036 -0.033,0.034 -0.033,0.034 -0.033,0.038 -0.03,0.035 -0.031,0.038 -0.03,0.04 -0.028,0.038 -0.027,0.039 -0.027,0.041 -0.026,0.041 -0.023,0.041 -0.025,0.043 -0.022,0.043 -0.022,0.043 -0.02,0.042 -0.019,0.046 -0.02,0.046 -0.016,0.043 -0.016,0.046 -0.015,0.047 -0.015,0.048 -0.012,0.046 -0.012,0.048 -0.01,0.048 -0.009,0.047 -0.009,0.051 -0.007,0.051 -0.006,0.05 -0.004,0.048 -0.003,0.053 -0.002,0.053 -10e-4,0.064 0,41.975 10e-4,0.064 0.002,0.053 0.003,0.053 0.004,0.048 0.006,0.049 0.007,0.052 0.009,0.051 0.009,0.047 0.01,0.048 0.012,0.048 0.012,0.046 0.015,0.048 0.015,0.047 0.016,0.046 0.016,0.042 0.02,0.047 0.019,0.046 0.02,0.042 0.022,0.043 0.022,0.043 0.025,0.043 0.023,0.041 0.026,0.041 0.027,0.041 0.027,0.039 0.028,0.038 0.03,0.04 0.031,0.038 0.03,0.035 0.033,0.038 0.033,0.034 0.033,0.034 0.036,0.036 0.035,0.033 0.035,0.03 0.038,0.032 0.036,0.03 0.039,0.03 0.041,0.029 0.038,0.026 0.04,0.027 0.041,0.026 0.042,0.024 0.042,0.024 0.043,0.022 0.044,0.022 0.043,0.02 0.043,0.019 0.046,0.019 0.047,0.018 0.045,0.016 0.045,0.014 0.047,0.014 0.048,0.013 0.047,0.012 0.049,0.011 0.048,0.009 0.049,0.008 0.05,0.007 0.051,0.006 0.05,0.004 0.052,0.004 0.052,0.002 0.065,0 41.974,0 0.065,0 0.052,-0.002 0.052,-0.004 0.05,-0.004 0.051,-0.006 0.05,-0.007 0.049,-0.008 0.048,-0.009 0.049,-0.011 0.047,-0.012 0.048,-0.013 0.047,-0.014 0.045,-0.014 0.045,-0.016 0.047,-0.018 0.046,-0.019 0.043,-0.019 0.043,-0.02 0.044,-0.022 0.043,-0.022 0.042,-0.024 0.042,-0.024 0.041,-0.026 0.04,-0.027 0.038,-0.026 0.041,-0.029 0.039,-0.03 0.036,-0.03 0.038,-0.032 0.035,-0.03 0.035,-0.033 0.036,-0.036 0.033,-0.034 0.033,-0.034 0.033,-0.038 0.03,-0.035 0.031,-0.038 0.03,-0.04 0.028,-0.038 0.027,-0.039 0.027,-0.041 0.026,-0.041 0.023,-0.041 0.025,-0.043 0.022,-0.043 0.022,-0.043 0.02,-0.042 0.019,-0.046 0.02,-0.047 0.016,-0.042 0.016,-0.046 0.015,-0.047 0.015,-0.048 0.012,-0.046 0.012,-0.048 0.01,-0.048 0.009,-0.047 0.009,-0.051 0.007,-0.052 0.006,-0.049 0.004,-0.048 0.003,-0.053 0.002,-0.053 0.001,-0.064 0,-41.975 -0.001,-0.064 -0.002,-0.053 -0.003,-0.053 -0.004,-0.048 -0.006,-0.05 -0.007,-0.051 -0.009,-0.051 -0.009,-0.047 -0.01,-0.048 -0.012,-0.048 -0.012,-0.046 -0.015,-0.048 -0.015,-0.047 -0.016,-0.046 -0.016,-0.043 -0.02,-0.046 -0.019,-0.046 -0.02,-0.042 -0.022,-0.043 -0.022,-0.043 -0.025,-0.043 -0.023,-0.041 -0.026,-0.041 -0.027,-0.041 -0.027,-0.039 -0.028,-0.038 -0.03,-0.04 -0.031,-0.038 -0.03,-0.035 -0.033,-0.038 -0.033,-0.034 -0.033,-0.034 -0.036,-0.036 -0.035,-0.033 -0.035,-0.03 -0.038,-0.032 -0.036,-0.03 -0.039,-0.03 -0.041,-0.029 -0.038,-0.027 -0.04,-0.026 -0.041,-0.026 -0.042,-0.025 -0.042,-0.023 -0.043,-0.023 -0.044,-0.021 -0.043,-0.021 -0.043,-0.019 -0.046,-0.018 -0.046,-0.018 -0.046,-0.016 -0.045,-0.015 -0.047,-0.014 -0.048,-0.013 -0.048,-0.011 -0.048,-0.011 -0.048,-0.009 -0.049,-0.008 -0.051,-0.007 -0.05,-0.006 -0.05,-0.005 -0.052,-0.003 -0.052,-0.002 -0.065,-10e-4 -41.974,0 z" />
      <path
         id="path4192"
         style="clip-rule:evenodd;fill:#2e006a;fill-rule:nonzero;stroke-linejoin:round;stroke-miterlimit:1.41420996;image-rendering:optimizeQuality"
         d="m 151.38571,485.16806 c -0.561,-0.044 -1.122,-0.087 -1.725,-0.087 -7.202,0 -15.132,5.477 -15.132,11.213 0,3.102 1.637,4.179 4.609,4.179 -0.043,-0.388 -0.604,-0.732 -0.604,-2.929 0,-4.571 2.243,-7.848 6.038,-9.444 l -6.253,29.32 6.21,0 3.45,-16.215 6.339,0 -3.45,16.215 6.21,0 6.857,-32.252 -6.21,0 -2.76,12.851 -6.339,0 2.76,-12.851 z" />
      <g
         style="clip-rule:evenodd;fill:#2e006a;fill-opacity:1;fill-rule:evenodd;stroke-linejoin:round;stroke-miterlimit:1.41420996;image-rendering:optimizeQuality"
         id="g4842"
         transform="matrix(0.61398113,0,0,0.61398113,187.10947,351.81125)">
        <path
           d="m 38.962,216.411 c -0.906,-0.07 -1.812,-0.14 -2.788,-0.14 -11.636,0 -24.449,8.85 -24.449,18.118 0,5.013 2.644,6.752 7.447,6.752 -0.07,-0.626 -0.975,-1.183 -0.975,-4.732 0,-7.386 3.623,-12.682 9.755,-15.26 l -10.103,47.375 10.033,0 5.575,-26.2 10.243,0 -5.575,26.2 10.034,0 11.08,-52.113 -10.034,0 -4.46,20.765 -10.243,0 4.46,-20.765 z"
           style="fill:#2e006a;fill-opacity:1;fill-rule:nonzero"
           id="path4274" />
        <path
           d="m 75.342,233.065 c -14.356,0 -19.091,16.719 -19.091,24.735 0,7.941 4.665,11.002 11.141,11.002 8.577,0 15.54,-8.075 16.654,-20.97 5.086,-0.837 9.685,-2.928 12.333,-5.786 l -0.627,-1.882 c -2.997,2.091 -7.526,4.183 -10.731,4.183 -0.209,0 -0.488,0 -0.767,-0.14 0,-7.318 -2.922,-11.142 -8.912,-11.142 z m -5.161,29.475 c -2.649,0 -3.556,-1.046 -3.556,-5.646 0,-6.832 4.323,-19.588 9.274,-19.588 1.813,0 2.511,1.116 2.65,4.043 -1.255,0.558 -2.16,1.813 -2.16,3.764 0,1.394 0.418,2.579 1.879,2.928 -1.113,8.225 -4.669,14.499 -8.086,14.499 l -0.001,0 z"
           style="fill:#2e006a;fill-opacity:1;fill-rule:nonzero"
           id="path4276" />
        <path
           d="m 113.802,233.692 -13.443,10.589 5.227,-24.525 -10.313,1.393 -10.104,47.383 10.034,0 3.623,-17.218 c 1.952,-1.604 3.554,-2.58 5.157,-2.58 1.812,0 2.508,1.325 2.508,3.346 0,0.767 -0.069,1.673 -0.278,2.58 l -0.558,2.718 c -0.279,1.327 -0.418,2.512 -0.418,3.628 0,5.082 3.063,7.936 8.772,7.936 3.205,0 8.849,-1.183 12.821,-12.886 l -2.927,0 c -1.533,3.625 -2.787,6.135 -5.853,6.135 -2.16,0 -2.718,-1.185 -2.718,-2.579 0,-0.767 0.209,-1.534 0.349,-2.232 l 0.766,-3.486 c 0.209,-0.906 0.279,-1.813 0.279,-2.65 0,-4.458 -2.507,-8.145 -7.659,-8.145 -0.765,0 -1.531,0.139 -2.297,0.278 l 13.928,-9.685 -6.896,0 z"
           style="fill:#2e006a;fill-opacity:1;fill-rule:nonzero"
           id="path4278" />
        <path
           d="m 145.853,233.692 -4.739,22.367 c -1.045,3.485 -2.857,6.132 -5.574,6.132 -1.533,0 -2.091,-1.254 -2.091,-2.857 0,-0.627 0.07,-1.254 0.209,-1.951 l 5.017,-23.691 -10.03,0 -4.734,22.367 c -0.348,1.673 -0.557,3.206 -0.557,4.53 0,5.847 3.272,8.353 7.45,8.353 2.924,0 6.826,-0.905 10.31,-6.611 0.418,4.314 2.927,6.611 6.899,6.611 3.762,0 10.034,-1.531 14.006,-12.883 l -2.927,0 c -1.045,3.485 -2.927,6.132 -5.644,6.132 -1.951,0 -2.857,-0.627 -2.857,-2.578 0,-0.627 0.07,-1.324 0.279,-2.23 l 5.017,-23.691 -10.034,0 z"
           style="fill:#2e006a;fill-opacity:1;fill-rule:nonzero"
           id="path4280" />
        <path
           d="m 169.133,232.925 c -2.162,6.829 -4.672,13.727 -8.578,20.626 -1.877,0.906 -3.684,3.275 -3.684,6.48 0,4.25 3.059,8.911 10.17,8.911 5.716,0 13.931,-2.992 13.931,-12.046 0,-4.599 -0.697,-7.317 -1.533,-25.364 l -10.306,1.393 z m -3.63,23.134 c 0,-1.184 -0.696,-2.02 -1.601,-2.438 2.299,-4.46 4.254,-8.641 5.651,-13.17 0.696,10.731 1.324,12.891 1.324,16.514 0,4.873 -2.999,6.472 -6.068,6.472 -3.068,0 -4.254,-1.599 -4.254,-4.869 0.349,0.697 1.186,0.906 1.883,0.906 1.812,0 3.065,-1.742 3.065,-3.415 z"
           style="fill:#2e006a;fill-opacity:1;fill-rule:nonzero"
           id="path4282" />
      </g>
    </g>
  </g>
</svg>
