<?xml version="1.0" encoding="UTF-8" standalone="no"?><!DOCTYPE svg PUBLIC "-//W3C//DTD SVG 1.1//EN" "http://www.w3.org/Graphics/SVG/1.1/DTD/svg11.dtd"><svg width="100%" height="100%" viewBox="0 0 50 51" version="1.1" xmlns="http://www.w3.org/2000/svg" xmlns:xlink="http://www.w3.org/1999/xlink" xml:space="preserve" xmlns:serif="http://www.serif.com/" style="fill-rule:evenodd;clip-rule:evenodd;stroke-linejoin:round;stroke-miterlimit:1.41421;"><g id="logo"><path d="M46.103,0.61l0.103,0.004l0.102,0.006l0.101,0.009l0.1,0.012l0.1,0.014l0.099,0.016l0.098,0.019l0.097,0.021l0.096,0.023l0.096,0.026l0.094,0.028l0.093,0.031l0.093,0.032l0.091,0.035l0.09,0.037l0.09,0.039l0.088,0.041l0.086,0.043l0.086,0.046l0.084,0.047l0.083,0.049l0.082,0.051l0.081,0.053l0.079,0.055l0.078,0.057l0.076,0.058l0.075,0.06l0.073,0.062l0.072,0.064l0.07,0.065l0.069,0.068l0.067,0.068l0.065,0.071l0.064,0.071l0.062,0.074l0.06,0.075l0.059,0.076l0.057,0.078l0.054,0.079l0.053,0.08l0.052,0.082l0.049,0.083l0.047,0.084l0.045,0.086l0.043,0.087l0.041,0.088l0.039,0.089l0.037,0.09l0.035,0.092l0.033,0.092l0.03,0.094l0.028,0.094l0.026,0.095l0.023,0.097l0.022,0.097l0.018,0.098l0.017,0.099l0.014,0.099l0.011,0.101l0.009,0.101l0.007,0.102l0.004,0.102l0.001,0.103l0,42l-0.001,0.104l-0.004,0.102l-0.007,0.102l-0.009,0.101l-0.011,0.101l-0.014,0.099l-0.017,0.099l-0.018,0.098l-0.022,0.097l-0.023,0.097l-0.026,0.095l-0.028,0.094l-0.03,0.094l-0.033,0.092l-0.035,0.092l-0.037,0.09l-0.039,0.089l-0.041,0.088l-0.043,0.087l-0.045,0.085l-0.047,0.085l-0.049,0.083l-0.052,0.082l-0.053,0.08l-0.054,0.079l-0.057,0.078l-0.059,0.076l-0.06,0.075l-0.062,0.074l-0.064,0.071l-0.065,0.071l-0.067,0.068l-0.069,0.067l-0.07,0.066l-0.072,0.064l-0.073,0.062l-0.075,0.06l-0.076,0.058l-0.078,0.057l-0.079,0.055l-0.081,0.053l-0.082,0.051l-0.083,0.049l-0.084,0.047l-0.086,0.046l-0.086,0.043l-0.088,0.041l-0.09,0.039l-0.09,0.037l-0.091,0.035l-0.093,0.032l-0.093,0.03l-0.094,0.029l-0.096,0.025l-0.096,0.024l-0.097,0.021l-0.098,0.019l-0.099,0.016l-0.1,0.014l-0.1,0.012l-0.101,0.009l-0.102,0.006l-0.103,0.004l-0.103,0.001l-42,0l-0.103,-0.001l-0.103,-0.004l-0.102,-0.006l-0.101,-0.009l-0.1,-0.012l-0.1,-0.014l-0.099,-0.016l-0.098,-0.019l-0.097,-0.021l-0.096,-0.024l-0.096,-0.025l-0.094,-0.029l-0.093,-0.03l-0.093,-0.032l-0.091,-0.035l-0.09,-0.037l-0.09,-0.039l-0.088,-0.041l-0.086,-0.043l-0.086,-0.046l-0.084,-0.047l-0.083,-0.049l-0.082,-0.051l-0.081,-0.053l-0.079,-0.055l-0.078,-0.057l-0.076,-0.058l-0.075,-0.06l-0.073,-0.062l-0.072,-0.064l-0.07,-0.066l-0.069,-0.067l-0.067,-0.068l-0.065,-0.071l-0.064,-0.071l-0.062,-0.074l-0.06,-0.075l-0.059,-0.076l-0.057,-0.078l-0.054,-0.079l-0.053,-0.08l-0.052,-0.082l-0.049,-0.083l-0.047,-0.085l-0.045,-0.085l-0.043,-0.087l-0.041,-0.088l-0.039,-0.089l-0.037,-0.09l-0.035,-0.092l-0.033,-0.092l-0.03,-0.094l-0.028,-0.094l-0.026,-0.095l-0.023,-0.097l-0.022,-0.097l-0.018,-0.098l-0.017,-0.099l-0.014,-0.099l-0.011,-0.101l-0.009,-0.101l-0.007,-0.102l-0.004,-0.102l-0.001,-0.104l0,-42l0.001,-0.103l0.004,-0.102l0.007,-0.102l0.009,-0.101l0.011,-0.101l0.014,-0.099l0.017,-0.099l0.018,-0.098l0.022,-0.097l0.023,-0.097l0.026,-0.095l0.028,-0.094l0.03,-0.094l0.033,-0.092l0.035,-0.092l0.037,-0.09l0.039,-0.089l0.041,-0.088l0.043,-0.087l0.045,-0.086l0.047,-0.084l0.049,-0.083l0.052,-0.082l0.053,-0.08l0.054,-0.079l0.057,-0.078l0.059,-0.076l0.06,-0.075l0.062,-0.074l0.064,-0.071l0.065,-0.071l0.067,-0.068l0.069,-0.068l0.07,-0.065l0.072,-0.064l0.073,-0.062l0.075,-0.06l0.076,-0.058l0.078,-0.057l0.079,-0.055l0.081,-0.053l0.082,-0.051l0.083,-0.049l0.084,-0.047l0.086,-0.046l0.086,-0.043l0.088,-0.041l0.09,-0.039l0.09,-0.037l0.091,-0.035l0.093,-0.032l0.093,-0.031l0.094,-0.028l0.096,-0.026l0.096,-0.023l0.097,-0.021l0.098,-0.019l0.099,-0.016l0.1,-0.014l0.1,-0.012l0.101,-0.009l0.102,-0.006l0.103,-0.004l0.103,-0.002l42,0l0.103,0.002Zm-42.09,1.998l-0.065,0.001l-0.052,0.002l-0.052,0.003l-0.05,0.005l-0.05,0.006l-0.051,0.007l-0.049,0.008l-0.048,0.009l-0.048,0.011l-0.048,0.011l-0.048,0.013l-0.047,0.014l-0.045,0.015l-0.046,0.016l-0.046,0.018l-0.046,0.018l-0.043,0.019l-0.043,0.021l-0.044,0.021l-0.043,0.023l-0.042,0.023l-0.042,0.025l-0.041,0.026l-0.04,0.026l-0.038,0.027l-0.041,0.029l-0.039,0.03l-0.036,0.03l-0.038,0.032l-0.035,0.03l-0.035,0.033l-0.036,0.036l-0.033,0.034l-0.033,0.034l-0.033,0.038l-0.03,0.035l-0.031,0.038l-0.03,0.04l-0.028,0.038l-0.027,0.039l-0.027,0.041l-0.026,0.041l-0.023,0.041l-0.025,0.043l-0.022,0.043l-0.022,0.043l-0.02,0.042l-0.019,0.046l-0.02,0.046l-0.016,0.043l-0.016,0.046l-0.015,0.047l-0.015,0.048l-0.012,0.046l-0.012,0.048l-0.01,0.048l-0.009,0.047l-0.009,0.051l-0.007,0.051l-0.006,0.05l-0.004,0.048l-0.003,0.053l-0.002,0.053l-0.001,0.064l0,41.975l0.001,0.064l0.002,0.053l0.003,0.053l0.004,0.048l0.006,0.049l0.007,0.052l0.009,0.051l0.009,0.047l0.01,0.048l0.012,0.048l0.012,0.046l0.015,0.048l0.015,0.047l0.016,0.046l0.016,0.042l0.02,0.047l0.019,0.046l0.02,0.042l0.022,0.043l0.022,0.043l0.025,0.043l0.023,0.041l0.026,0.041l0.027,0.041l0.027,0.039l0.028,0.038l0.03,0.04l0.031,0.038l0.03,0.035l0.033,0.038l0.033,0.034l0.033,0.034l0.036,0.036l0.035,0.033l0.035,0.03l0.038,0.032l0.036,0.03l0.039,0.03l0.041,0.029l0.038,0.026l0.04,0.027l0.041,0.026l0.042,0.024l0.042,0.024l0.043,0.022l0.044,0.022l0.043,0.02l0.043,0.019l0.046,0.019l0.047,0.018l0.045,0.016l0.045,0.014l0.047,0.014l0.048,0.013l0.047,0.012l0.049,0.011l0.048,0.009l0.049,0.008l0.05,0.007l0.051,0.006l0.05,0.004l0.052,0.004l0.052,0.002l0.065,0l41.974,0l0.065,0l0.052,-0.002l0.052,-0.004l0.05,-0.004l0.051,-0.006l0.05,-0.007l0.049,-0.008l0.048,-0.009l0.049,-0.011l0.047,-0.012l0.048,-0.013l0.047,-0.014l0.045,-0.014l0.045,-0.016l0.047,-0.018l0.046,-0.019l0.043,-0.019l0.043,-0.02l0.044,-0.022l0.043,-0.022l0.042,-0.024l0.042,-0.024l0.041,-0.026l0.04,-0.027l0.038,-0.026l0.041,-0.029l0.039,-0.03l0.036,-0.03l0.038,-0.032l0.035,-0.03l0.035,-0.033l0.036,-0.036l0.033,-0.034l0.033,-0.034l0.033,-0.038l0.03,-0.035l0.031,-0.038l0.03,-0.04l0.028,-0.038l0.027,-0.039l0.027,-0.041l0.026,-0.041l0.023,-0.041l0.025,-0.043l0.022,-0.043l0.022,-0.043l0.02,-0.042l0.019,-0.046l0.02,-0.047l0.016,-0.042l0.016,-0.046l0.015,-0.047l0.015,-0.048l0.012,-0.046l0.012,-0.048l0.01,-0.048l0.009,-0.047l0.009,-0.051l0.007,-0.052l0.006,-0.049l0.004,-0.048l0.003,-0.053l0.002,-0.053l0.001,-0.064l0,-41.975l-0.001,-0.064l-0.002,-0.053l-0.003,-0.053l-0.004,-0.048l-0.006,-0.05l-0.007,-0.051l-0.009,-0.051l-0.009,-0.047l-0.01,-0.048l-0.012,-0.048l-0.012,-0.046l-0.015,-0.048l-0.015,-0.047l-0.016,-0.046l-0.016,-0.043l-0.02,-0.046l-0.019,-0.046l-0.02,-0.042l-0.022,-0.043l-0.022,-0.043l-0.025,-0.043l-0.023,-0.041l-0.026,-0.041l-0.027,-0.041l-0.027,-0.039l-0.028,-0.038l-0.03,-0.04l-0.031,-0.038l-0.03,-0.035l-0.033,-0.038l-0.033,-0.034l-0.033,-0.034l-0.036,-0.036l-0.035,-0.033l-0.035,-0.03l-0.038,-0.032l-0.036,-0.03l-0.039,-0.03l-0.041,-0.029l-0.038,-0.027l-0.04,-0.026l-0.041,-0.026l-0.042,-0.025l-0.042,-0.023l-0.043,-0.023l-0.044,-0.021l-0.043,-0.021l-0.043,-0.019l-0.046,-0.018l-0.046,-0.018l-0.046,-0.016l-0.045,-0.015l-0.047,-0.014l-0.048,-0.013l-0.048,-0.011l-0.048,-0.011l-0.048,-0.009l-0.049,-0.008l-0.051,-0.007l-0.05,-0.006l-0.05,-0.005l-0.052,-0.003l-0.052,-0.002l-0.065,-0.001l-41.974,0Z" style="fill:#2e006a;"/><path d="M26.413,9.901c-0.561,-0.044 -1.122,-0.087 -1.725,-0.087c-7.202,0 -15.132,5.477 -15.132,11.213c0,3.102 1.637,4.179 4.609,4.179c-0.043,-0.388 -0.604,-0.732 -0.604,-2.929c0,-4.571 2.243,-7.848 6.038,-9.444l-6.253,29.32l6.21,0l3.45,-16.215l6.339,0l-3.45,16.215l6.21,0l6.857,-32.252l-6.21,0l-2.76,12.851l-6.339,0l2.76,-12.851Z" style="fill:#2e006a;fill-rule:nonzero;"/></g></svg>